<?xml version="1.0" encoding="UTF-8"?>
<!DOCTYPE svg PUBLIC "-//W3C//DTD SVG 1.1//EN" "http://www.w3.org/Graphics/SVG/1.1/DTD/svg11.dtd">
<svg xmlns="http://www.w3.org/2000/svg" version="1.1" width="3067px" height="842px" style="shape-rendering:geometricPrecision; text-rendering:geometricPrecision; image-rendering:optimizeQuality; fill-rule:evenodd; clip-rule:evenodd" xmlns:xlink="http://www.w3.org/1999/xlink">
<g><path style="opacity:1" fill="#ed9400" d="M 695.5,175.5 C 692.833,176.167 690.167,176.833 687.5,177.5C 662.552,178.402 639.219,184.902 617.5,197C 554.026,243.64 490.693,290.474 427.5,337.5C 406.761,329.642 385.761,322.476 364.5,316C 360.489,314.661 356.822,312.828 353.5,310.5C 399.128,274.344 444.794,238.178 490.5,202C 462.135,189.993 433.468,178.993 404.5,169C 360.333,206.5 316.167,244 272,281.5C 244.956,270.437 218.122,259.104 191.5,247.5C 243.167,205.333 294.833,163.167 346.5,121C 318.089,110.53 289.756,99.8631 261.5,89C 285.44,63.157 314.44,55.4903 348.5,66C 464.154,102.607 579.82,139.107 695.5,175.5 Z"/></g>
<g><path style="opacity:1" fill="#e4600f" d="M 237.5,112.5 C 241.563,114.368 245.563,116.535 249.5,119C 260.704,122.678 271.704,126.845 282.5,131.5C 246.723,161.229 210.723,190.729 174.5,220C 157.958,233.443 155.124,249.276 166,267.5C 169.642,272.146 174.142,275.646 179.5,278C 208.019,289.728 236.686,301.062 265.5,312C 275.401,313.919 284.401,311.919 292.5,306C 331.206,272.292 370.206,238.959 409.5,206C 415.613,206.315 421.28,208.149 426.5,211.5C 394.169,237.66 361.669,263.66 329,289.5C 318.729,304.426 319.062,319.093 330,333.5C 336.355,338.762 343.522,342.596 351.5,345C 376.975,353.381 402.475,361.548 428,369.5C 434.28,369.073 440.113,367.24 445.5,364C 509.144,316.179 573.144,268.845 637.5,222C 645.398,217.812 653.732,214.812 662.5,213C 676.405,210.516 690.405,208.849 704.5,208C 709.391,206.888 713.725,204.721 717.5,201.5C 733.861,212.852 743.695,228.519 747,248.5C 748.434,255.102 749.434,261.768 750,268.5C 750.667,376.5 750.667,484.5 750,592.5C 737.667,613.167 725.333,633.833 713,654.5C 712.667,538.167 712.333,421.833 712,305.5C 712.127,293.2 707.96,282.7 699.5,274C 692.544,270.806 685.544,270.806 678.5,274C 672.675,276.745 667.008,279.745 661.5,283C 606.101,318.728 550.434,354.062 494.5,389C 468.401,404.098 448.901,425.265 436,452.5C 432.243,461.859 429.577,471.525 428,481.5C 426.704,537.811 426.038,594.145 426,650.5C 425.875,663.351 422.208,675.018 415,685.5C 409.113,690.513 402.28,692.847 394.5,692.5C 389.117,691.992 383.784,691.158 378.5,690C 301.636,666.867 224.636,644.201 147.5,622C 134.967,616.14 124.134,607.973 115,597.5C 106.53,585.922 102.363,572.922 102.5,558.5C 103.144,517.173 103.477,475.84 103.5,434.5C 103.652,394.13 103.152,353.796 102,313.5C 97.9771,291.491 85.8104,275.991 65.5,267C 57.6568,264.206 49.6568,262.039 41.5,260.5C 106.902,211.146 172.235,161.813 237.5,112.5 Z"/></g>
<g><path style="opacity:0.502" fill="#724700" d="M 695.5,175.5 C 696.289,175.783 696.956,176.283 697.5,177C 694.183,177.498 690.85,177.665 687.5,177.5C 690.167,176.833 692.833,176.167 695.5,175.5 Z"/></g>
<g><path style="opacity:0.502" fill="#723008" d="M 947.5,223.5 C 920.167,223.5 892.833,223.5 865.5,223.5C 865.5,313.167 865.5,402.833 865.5,492.5C 864.501,402.668 864.167,312.668 864.5,222.5C 892.338,222.169 920.005,222.502 947.5,223.5 Z"/></g>
<g><path style="opacity:1" fill="#e5600f" d="M 947.5,223.5 C 947.333,312.167 947.5,400.834 948,489.5C 951.835,516.334 967.002,532.501 993.5,538C 1075.5,538.667 1157.5,538.667 1239.5,538C 1258.9,534.272 1272.73,523.438 1281,505.5C 1282.8,500.977 1283.96,496.31 1284.5,491.5C 1285.5,402.335 1285.83,313.002 1285.5,223.5C 1312.83,223.5 1340.17,223.5 1367.5,223.5C 1367.67,316.167 1367.5,408.834 1367,501.5C 1357.48,560.355 1324.31,598.855 1267.5,617C 1259.93,618.873 1252.26,620.206 1244.5,621C 1158.83,621.667 1073.17,621.667 987.5,621C 932.397,613.212 894.231,583.712 873,532.5C 868.121,519.605 865.621,506.272 865.5,492.5C 865.5,402.833 865.5,313.167 865.5,223.5C 892.833,223.5 920.167,223.5 947.5,223.5 Z"/></g>
<g><path style="opacity:0.502" fill="#723008" d="M 1367.5,223.5 C 1340.17,223.5 1312.83,223.5 1285.5,223.5C 1285.83,313.002 1285.5,402.335 1284.5,491.5C 1284.5,401.833 1284.5,312.167 1284.5,222.5C 1312.34,222.169 1340.01,222.502 1367.5,223.5 Z"/></g>
<g><path style="opacity:1" fill="#e4600f" d="M 1545.5,222.5 C 1633.19,222.024 1720.85,222.524 1808.5,224C 1863.24,234.405 1899.74,265.905 1918,318.5C 1920.3,326.37 1921.97,334.37 1923,342.5C 1923.5,435.499 1923.67,528.499 1923.5,621.5C 1895.83,621.5 1868.17,621.5 1840.5,621.5C 1840.67,530.833 1840.5,440.166 1840,349.5C 1833.97,325.473 1818.81,310.973 1794.5,306C 1713.17,305.333 1631.83,305.333 1550.5,306C 1523.91,310.925 1508.41,326.758 1504,353.5C 1503.5,442.833 1503.33,532.166 1503.5,621.5C 1475.83,621.5 1448.17,621.5 1420.5,621.5C 1420.33,531.166 1420.5,440.833 1421,350.5C 1426.76,294.43 1455.26,254.93 1506.5,232C 1519.28,227.35 1532.28,224.183 1545.5,222.5 Z"/></g>
<g><path style="opacity:1" fill="#e4600f" d="M 2084.5,223.5 C 2210.17,223.5 2335.83,223.5 2461.5,223.5C 2461.5,250.5 2461.5,277.5 2461.5,304.5C 2337.47,304.013 2213.47,304.513 2089.5,306C 2068,311.5 2054.5,325 2049,346.5C 2047.65,359.125 2047.15,371.791 2047.5,384.5C 2184.5,384.5 2321.5,384.5 2458.5,384.5C 2458.5,412.167 2458.5,439.833 2458.5,467.5C 2321.5,467.5 2184.5,467.5 2047.5,467.5C 2047.33,475.84 2047.5,484.173 2048,492.5C 2051.52,516.684 2065.02,532.184 2088.5,539C 2212.8,540.489 2337.14,540.989 2461.5,540.5C 2461.5,567.833 2461.5,595.167 2461.5,622.5C 2335.15,622.98 2208.82,622.48 2082.5,621C 2026.09,611.048 1988.92,578.881 1971,524.5C 1969.15,517.935 1967.82,511.269 1967,504.5C 1966.33,450.167 1966.33,395.833 1967,341.5C 1974.41,291.439 2000.91,255.605 2046.5,234C 2058.86,228.913 2071.53,225.413 2084.5,223.5 Z"/></g>
<g><path style="opacity:1" fill="#e5600f" d="M 3029.5,223.5 C 3029.5,250.833 3029.5,278.167 3029.5,305.5C 2905.33,305.167 2781.33,305.5 2657.5,306.5C 2632.57,310.598 2617.07,324.932 2611,349.5C 2610.5,361.162 2610.33,372.829 2610.5,384.5C 2749.33,385.5 2888.33,385.833 3027.5,385.5C 3027.5,412.833 3027.5,440.167 3027.5,467.5C 2888.5,467.5 2749.5,467.5 2610.5,467.5C 2610.5,518.5 2610.5,569.5 2610.5,620.5C 2582.83,620.5 2555.17,620.5 2527.5,620.5C 2527.33,527.833 2527.5,435.166 2528,342.5C 2536.25,290.934 2564.08,254.434 2611.5,233C 2623.11,228.431 2635.11,225.431 2647.5,224C 2774.83,223.5 2902.17,223.333 3029.5,223.5 Z"/></g>
<g><path style="opacity:0.502" fill="#774a00" d="M 27.5,280.5 C 26.1667,280.5 24.8333,280.5 23.5,280.5C 23.5,368.833 23.5,457.167 23.5,545.5C 22.5006,457.002 22.1673,368.335 22.5,279.5C 24.4147,279.216 26.0813,279.549 27.5,280.5 Z"/></g>
<g><path style="opacity:1" fill="#ee9400" d="M 27.5,280.5 C 48.916,281.11 62.0827,291.777 67,312.5C 67.3333,389.5 67.6667,466.5 68,543.5C 69.0779,577.772 81.2446,607.272 104.5,632C 117.07,643.457 131.403,652.124 147.5,658C 214.438,680.201 281.438,702.201 348.5,724C 369.819,730.127 391.486,732.127 413.5,730C 446.833,724.67 467.333,705.503 475,672.5C 476.873,664.928 478.206,657.262 479,649.5C 479.333,603.833 479.667,558.167 480,512.5C 480.38,485.96 487.713,461.626 502,439.5C 509.093,430.405 517.927,423.572 528.5,419C 568.167,394 607.833,369 647.5,344C 652.003,341.61 656.669,339.61 661.5,338C 666.287,337.121 670.953,337.455 675.5,339C 677.617,340.731 679.117,342.898 680,345.5C 680.667,455.167 680.667,564.833 680,674.5C 632.75,703.208 585.583,732.041 538.5,761C 507.473,778.606 474.139,785.606 438.5,782C 416.069,779.847 394.069,775.514 372.5,769C 284.5,740.333 196.5,711.667 108.5,683C 77.8003,664.301 53.967,639.135 37,607.5C 28.0915,587.791 23.5915,567.124 23.5,545.5C 23.5,457.167 23.5,368.833 23.5,280.5C 24.8333,280.5 26.1667,280.5 27.5,280.5 Z"/></g>
<g><path style="opacity:0.502" fill="#723008" d="M 3029.5,223.5 C 3030.5,250.995 3030.83,278.662 3030.5,306.5C 2906.17,306.5 2781.83,306.5 2657.5,306.5C 2781.33,305.5 2905.33,305.167 3029.5,305.5C 3029.5,278.167 3029.5,250.833 3029.5,223.5 Z"/></g>
<g><path style="opacity:0.502" fill="#723008" d="M 2610.5,384.5 C 2749.83,384.5 2889.17,384.5 3028.5,384.5C 3028.83,412.338 3028.5,440.005 3027.5,467.5C 3027.5,440.167 3027.5,412.833 3027.5,385.5C 2888.33,385.833 2749.33,385.5 2610.5,384.5 Z"/></g>
</svg>
