<?xml version="1.0" encoding="UTF-8"?>
<!DOCTYPE svg PUBLIC "-//W3C//DTD SVG 1.1//EN" "http://www.w3.org/Graphics/SVG/1.1/DTD/svg11.dtd">
<svg xmlns="http://www.w3.org/2000/svg" version="1.1" width="886px" height="887px" style="shape-rendering:geometricPrecision; text-rendering:geometricPrecision; image-rendering:optimizeQuality; fill-rule:evenodd; clip-rule:evenodd" xmlns:xlink="http://www.w3.org/1999/xlink">
<g><path style="opacity:0.954" fill="#ef9600" d="M 414.5,215.5 C 420.245,215.211 425.912,215.711 431.5,217C 469.012,228.616 506.345,240.616 543.5,253C 534.709,253.186 526.376,255.186 518.5,259C 498.167,274 477.833,289 457.5,304C 455.833,304.667 454.167,304.667 452.5,304C 445.287,301.785 438.287,299.118 431.5,296C 445.879,283.953 460.545,272.286 475.5,261C 466.57,257.691 457.737,254.191 449,250.5C 435.167,262.333 421.333,274.167 407.5,286C 405.087,286.484 402.754,286.15 400.5,285C 393.168,282.33 386.168,279.163 379.5,275.5C 395.794,262.01 412.127,248.51 428.5,235C 419.577,231.47 410.577,228.137 401.5,225C 404.868,220.458 409.202,217.292 414.5,215.5 Z"/></g>
<g><path style="opacity:0.969" fill="#e5610f" d="M 393.5,231.5 C 398.843,233.836 404.177,236.169 409.5,238.5C 396.521,248.978 383.687,259.645 371,270.5C 368.839,274.698 369.172,278.698 372,282.5C 380.276,286.719 388.776,290.553 397.5,294C 401.017,295.734 404.684,296.401 408.5,296C 422.458,285.044 436.125,273.71 449.5,262C 451.925,261.754 453.925,262.588 455.5,264.5C 445.53,273.148 435.197,281.315 424.5,289C 420.353,294.275 420.686,299.275 425.5,304C 436.169,308.781 447.169,312.115 458.5,314C 459.833,313.333 461.167,312.667 462.5,312C 483.22,296.28 504.22,280.947 525.5,266C 533.524,264.166 541.524,262.333 549.5,260.5C 555.881,265.594 559.381,272.261 560,280.5C 560.667,316.167 560.667,351.833 560,387.5C 556,394.167 552,400.833 548,407.5C 547.667,369.167 547.333,330.833 547,292.5C 546.813,287.777 544.479,284.777 540,283.5C 517.098,296.7 494.598,310.533 472.5,325C 462.768,332.062 457.268,341.562 456,353.5C 455.667,372.5 455.333,391.5 455,410.5C 453.355,418.577 448.521,421.411 440.5,419C 415.557,411.514 390.557,404.18 365.5,397C 358.242,394.076 353.408,388.909 351,381.5C 350.667,352.833 350.333,324.167 350,295.5C 346.887,286.181 340.387,281.014 330.5,280C 351.569,263.813 372.569,247.647 393.5,231.5 Z"/></g>
<g><path style="opacity:0.97" fill="#ef9600" d="M 324.5,285.5 C 331.035,285.182 335.869,287.849 339,293.5C 339.333,319.167 339.667,344.833 340,370.5C 340.68,387.379 348.514,399.546 363.5,407C 385.771,414.535 408.104,421.868 430.5,429C 441.181,432.897 451.514,432.23 461.5,427C 468.259,421.071 471.759,413.571 472,404.5C 472.333,387.833 472.667,371.167 473,354.5C 473.969,346.063 477.469,338.897 483.5,333C 498.833,323.667 514.167,314.333 529.5,305C 531.833,304.333 534.167,304.333 536.5,305C 537.829,341.433 537.829,377.933 536.5,414.5C 519.5,424.667 502.5,434.833 485.5,445C 469.109,449.765 452.776,449.432 436.5,444C 408.093,434.864 379.76,425.531 351.5,416C 337.999,408.151 329.499,396.651 326,381.5C 324.545,349.536 324.045,317.536 324.5,285.5 Z"/></g>
<g><path style="opacity:0.971" fill="#e5610f" d="M 92.5,492.5 C 101.833,492.5 111.167,492.5 120.5,492.5C 120.333,522.169 120.5,551.835 121,581.5C 123.238,588.07 127.738,592.237 134.5,594C 161.167,594.667 187.833,594.667 214.5,594C 221.667,592.167 226.167,587.667 228,580.5C 228.5,551.169 228.667,521.835 228.5,492.5C 237.5,492.5 246.5,492.5 255.5,492.5C 255.667,523.835 255.5,555.168 255,586.5C 250.772,603.062 240.605,614.229 224.5,620C 207.709,621.13 190.876,621.63 174,621.5C 157.449,621.637 140.949,621.137 124.5,620C 106.626,613.781 96.1258,601.281 93,582.5C 92.5,552.502 92.3334,522.502 92.5,492.5 Z"/></g>
<g><path style="opacity:0.969" fill="#e5610f" d="M 307.5,492.5 C 338.168,492.333 368.835,492.5 399.5,493C 419.989,497.824 431.823,510.657 435,531.5C 435.5,561.498 435.667,591.498 435.5,621.5C 426.167,621.5 416.833,621.5 407.5,621.5C 407.667,591.498 407.5,561.498 407,531.5C 404.341,525.508 399.841,521.675 393.5,520C 366.833,519.333 340.167,519.333 313.5,520C 306.333,521.833 301.833,526.333 300,533.5C 299.5,562.831 299.333,592.165 299.5,621.5C 290.5,621.5 281.5,621.5 272.5,621.5C 272.029,588.784 272.529,556.117 274,523.5C 279.948,507.38 291.115,497.047 307.5,492.5 Z"/></g>
<g><path style="opacity:0.968" fill="#e5610f" d="M 484.5,492.5 C 525.833,492.5 567.167,492.5 608.5,492.5C 608.5,501.5 608.5,510.5 608.5,519.5C 568.499,519.333 528.499,519.5 488.5,520C 482.13,521.436 477.963,525.269 476,531.5C 475.501,535.821 475.334,540.154 475.5,544.5C 519.5,544.5 563.5,544.5 607.5,544.5C 607.5,553.833 607.5,563.167 607.5,572.5C 563.5,572.5 519.5,572.5 475.5,572.5C 473.692,583.062 477.692,590.229 487.5,594C 527.832,594.5 568.165,594.667 608.5,594.5C 608.5,603.5 608.5,612.5 608.5,621.5C 566.499,621.667 524.499,621.5 482.5,621C 464.667,616.5 453.5,605.333 449,587.5C 448.333,567.5 448.333,547.5 449,527.5C 453.437,508.229 465.271,496.562 484.5,492.5 Z"/></g>
<g><path style="opacity:0.972" fill="#e5610f" d="M 666.5,492.5 C 708.5,492.5 750.5,492.5 792.5,492.5C 792.5,501.5 792.5,510.5 792.5,519.5C 752.499,519.333 712.499,519.5 672.5,520C 659.901,523.145 654.568,531.312 656.5,544.5C 701.5,544.5 746.5,544.5 791.5,544.5C 791.5,553.833 791.5,563.167 791.5,572.5C 746.5,572.5 701.5,572.5 656.5,572.5C 656.5,588.833 656.5,605.167 656.5,621.5C 647.5,621.5 638.5,621.5 629.5,621.5C 629.029,588.784 629.529,556.117 631,523.5C 637.164,506.492 648.998,496.159 666.5,492.5 Z"/></g>
</svg>
