<?xml version="1.0" encoding="UTF-8"?>
<svg xmlns="http://www.w3.org/2000/svg" xmlns:xlink="http://www.w3.org/1999/xlink" width="25px" height="25px" viewBox="0 0 25 25" version="1.1">
<g id="surface1">
<path style="fill-rule:nonzero;fill:rgb(100%,48.235294%,0%);fill-opacity:1;stroke-width:1;stroke-linecap:butt;stroke-linejoin:miter;stroke:rgb(100%,48.235294%,0%);stroke-opacity:1;stroke-miterlimit:4;" d="M 455.92 324.8 L 455.92 324.48 C 412.72 359.2 340.8 381.12 255.92 381.12 C 181.76 381.12 117.52 364.4 73.68 337.04 C 67.44 333.12 61.6 328.96 56.16 324.48 L 56.16 324.72 C 56.08 324.64 56 324.56 55.92 324.48 L 55.92 416.56 C 55.92 469.2 145.68 512 255.92 512 C 366.24 512 455.92 469.2 455.92 416.56 L 455.92 360.08 L 456.08 324.72 C 456 324.72 456 324.8 455.92 324.8 Z M 455.92 324.8 " transform="matrix(0.0488281,0,0,0.0488281,0,0)"/>
<path style="fill-rule:nonzero;fill:rgb(100%,48.235294%,0%);fill-opacity:1;stroke-width:1;stroke-linecap:butt;stroke-linejoin:miter;stroke:rgb(100%,48.235294%,0%);stroke-opacity:1;stroke-miterlimit:4;" d="M 255.92 340.8 C 366.24 340.8 455.92 298 455.92 245.36 L 455.92 185.2 L 456.08 174.72 C 456 174.8 456 174.8 455.92 174.88 L 455.92 174.56 C 412.72 209.28 340.8 231.2 255.92 231.2 C 181.84 231.2 117.52 214.48 73.68 187.12 C 67.44 183.2 61.6 178.96 56.16 174.56 L 56.16 174.72 C 56.08 174.72 56 174.64 55.92 174.56 L 55.92 245.36 C 55.92 298 145.68 340.8 255.92 340.8 Z M 255.92 340.8 " transform="matrix(0.0488281,0,0,0.0488281,0,0)"/>
<path style="fill-rule:nonzero;fill:rgb(100%,48.235294%,0%);fill-opacity:1;stroke-width:1;stroke-linecap:butt;stroke-linejoin:miter;stroke:rgb(100%,48.235294%,0%);stroke-opacity:1;stroke-miterlimit:4;" d="M 255.92 190.88 C 366.24 190.88 455.92 148.08 455.92 95.44 C 455.92 93.92 455.6 92.48 455.44 90.96 C 454.64 82.48 451.6 74.16 446.32 66.4 C 420.48 27.92 344.96 0 255.92 0 C 166.88 0 91.36 27.92 65.52 66.4 C 60.24 74.16 57.2 82.48 56.4 90.96 C 56.24 92.48 55.92 93.92 55.92 95.44 C 55.92 148.08 145.68 190.88 255.92 190.88 Z M 255.92 190.88 " transform="matrix(0.0488281,0,0,0.0488281,0,0)"/>
</g>
</svg>
