<?xml version="1.0" encoding="UTF-8"?>
<svg xmlns="http://www.w3.org/2000/svg" xmlns:xlink="http://www.w3.org/1999/xlink" width="25px" height="25px" viewBox="0 0 25 25" version="1.1">
<g id="surface1">
<path style="fill-rule:nonzero;fill:rgb(100%,48.235294%,0%);fill-opacity:1;stroke-width:1;stroke-linecap:butt;stroke-linejoin:miter;stroke:rgb(100%,48.235294%,0%);stroke-opacity:1;stroke-miterlimit:4;" d="M 16.00125 6 C 16.00125 8.20875 14.20875 10.00125 12 10.00125 C 9.79125 10.00125 7.99875 8.20875 7.99875 6 C 7.99875 3.79125 9.79125 1.99875 12 1.99875 C 14.20875 1.99875 16.00125 3.79125 16.00125 6 Z M 16.00125 6 " transform="matrix(1.041667,0,0,1.041667,0,0)"/>
<path style="fill-rule:nonzero;fill:rgb(100%,48.235294%,0%);fill-opacity:1;stroke-width:1;stroke-linecap:butt;stroke-linejoin:miter;stroke:rgb(100%,48.235294%,0%);stroke-opacity:1;stroke-miterlimit:4;" d="M 19.00125 16.99875 C 19.00125 14.79 15.86625 13.00125 12 13.00125 C 8.13375 13.00125 4.99875 14.79 4.99875 16.99875 C 4.99875 19.2075 8.13375 21 12 21 C 15.86625 21 19.00125 19.2075 19.00125 16.99875 Z M 19.00125 16.99875 " transform="matrix(1.041667,0,0,1.041667,0,0)"/>
</g>
</svg>
